<svg xmlns="http://www.w3.org/2000/svg" xmlns:xlink="http://www.w3.org/1999/xlink" viewBox="0 0 490.6 436.9"><defs><linearGradient id="a" x1="175.7" y1="296.45" x2="666.3" y2="296.45" gradientUnits="userSpaceOnUse"><stop offset="0" stop-color="#fef3c7"/><stop offset="0.8" stop-color="#fbbf24" stop-opacity="0.8"/></linearGradient><linearGradient id="b" x1="520.5" y1="78.1" x2="520.5" y2="78.1" xlink:href="#a"/></defs><path d="M666.3,296.5c0-32.5-40.7-63.3-103.1-82.4,14.4-63.6,8-114.2-20.2-130.4a43.84,43.84,0,0,0-22.4-5.6v22.3A23.16,23.16,0,0,1,532,103c13.6,7.8,19.5,37.5,14.9,75.7-1.1,9.4-2.9,19.3-5.1,29.4a484.62,484.62,0,0,0-63.5-10.9,487.8,487.8,0,0,0-41.6-50c32.6-30.3,63.2-46.9,84-46.9V78c-27.5,0-63.5,19.6-99.9,53.6-36.4-33.8-72.4-53.2-99.9-53.2v22.3c20.7,0,51.4,16.5,84,46.6a472.31,472.31,0,0,0-41.3,49.9,467,467,0,0,0-63.6,11c-2.3-10-4-19.7-5.2-29-4.7-38.2,1.1-67.9,14.6-75.8,3-1.8,6.9-2.6,11.5-2.6V78.5a44.59,44.59,0,0,0-22.6,5.6c-28.1,16.2-34.4,66.7-19.9,130.1-62.2,19.2-102.7,49.9-102.7,82.3s40.7,63.3,103.1,82.4c-14.4,63.6-8,114.2,20.2,130.4,6.5,3.8,14.1,5.6,22.5,5.6,27.5,0,63.5-19.6,99.9-53.6,36.4,33.8,72.4,53.2,99.9,53.2a44.59,44.59,0,0,0,22.6-5.6c28.1-16.2,34.4-66.7,19.9-130.1,62-19.1,102.5-49.9,102.5-82.3ZM536.1,229.8c-3.7,12.9-8.3,26.2-13.5,39.5-4.1-8-8.4-16-13.1-24s-9.5-15.8-14.4-23.4c14.2,2.1,27.9,4.7,41,7.9ZM490.3,336.3c-7.8,13.5-15.8,26.3-24.1,38.2-14.9,1.3-30,2-45.2,2s-30.2-.7-45-1.9q-12.45-17.85-24.2-38Q340.4,317,331,296.8c6.2-13.4,13.2-26.8,20.7-39.9,7.8-13.5,15.8-26.3,24.1-38.2,14.9-1.3,30-2,45.2-2s30.2.7,45,1.9q12.45,17.85,24.2,38,11.4,19.65,20.8,39.8c-6.3,13.4-13.2,26.8-20.7,39.9Zm32.3-13c5.4,13.4,10,26.8,13.8,39.8-13.1,3.2-26.9,5.9-41.2,8,4.9-7.7,9.8-15.6,14.4-23.7s8.9-16.1,13-24.1ZM421.2,430a412.27,412.27,0,0,1-27.8-32c9,.4,18.2.7,27.5.7s18.7-.2,27.8-.7A390.33,390.33,0,0,1,421.2,430Zm-74.4-58.9c-14.2-2.1-27.9-4.7-41-7.9,3.7-12.9,8.3-26.2,13.5-39.5,4.1,8,8.4,16,13.1,24S341.9,363.5,346.8,371.1ZM420.7,163a412.27,412.27,0,0,1,27.8,32c-9-.4-18.2-.7-27.5-.7s-18.7.2-27.8.7A390.33,390.33,0,0,1,420.7,163Zm-74,58.9c-4.9,7.7-9.8,15.6-14.4,23.7s-8.9,16-13,24c-5.4-13.4-10-26.8-13.8-39.8,13.1-3.1,26.9-5.8,41.2-7.9ZM256.2,347.1c-35.4-15.1-58.3-34.9-58.3-50.6s22.9-35.6,58.3-50.6c8.6-3.7,18-7,27.7-10.1a480.28,480.28,0,0,0,22.5,60.9,473.51,473.51,0,0,0-22.2,60.6c-9.9-3.1-19.3-6.5-28-10.2ZM310,490c-13.6-7.8-19.5-37.5-14.9-75.7,1.1-9.4,2.9-19.3,5.1-29.4a484.62,484.62,0,0,0,63.5,10.9,487.8,487.8,0,0,0,41.6,50c-32.6,30.3-63.2,46.9-84,46.9A23.87,23.87,0,0,1,310,490Zm237.2-76.2c4.7,38.2-1.1,67.9-14.6,75.8-3,1.8-6.9,2.6-11.5,2.6-20.7,0-51.4-16.5-84-46.6a472.31,472.31,0,0,0,41.3-49.9,467,467,0,0,0,63.6-11A279.94,279.94,0,0,1,547.2,413.8Zm38.5-66.7c-8.6,3.7-18,7-27.7,10.1a480.28,480.28,0,0,0-22.5-60.9,473.51,473.51,0,0,0,22.2-60.6c9.9,3.1,19.3,6.5,28.1,10.2,35.4,15.1,58.3,34.9,58.3,50.6s-23,35.6-58.4,50.6Z" transform="translate(-175.7 -78)" style="fill:url(#a)"/><path d="M520.5,78.1" transform="translate(-175.7 -78)" style="fill:url(#b)"/><path d="M420.38,260.22a2.43,2.43,0,0,0,2.42-2.42V244a2.42,2.42,0,0,0-4.84,0V257.8A2.43,2.43,0,0,0,420.38,260.22Z" transform="translate(-175.7 -78)" style="fill:#fcd34d"/><path d="M420.38,336.73a2.43,2.43,0,0,0-2.42,2.42V353a2.42,2.42,0,1,0,4.84,0V339.16A2.43,2.43,0,0,0,420.38,336.73Z" transform="translate(-175.7 -78)" style="fill:#fcd34d"/><path d="M383.56,258.24a2.42,2.42,0,0,0-3.43,3.42l9.77,9.77a2.42,2.42,0,1,0,3.42-3.43Z" transform="translate(-175.7 -78)" style="fill:#fcd34d"/><path d="M450.85,325.53a2.42,2.42,0,0,0-3.42,3.42l9.77,9.77a2.42,2.42,0,0,0,3.42-3.42Z" transform="translate(-175.7 -78)" style="fill:#fcd34d"/><path d="M382.12,298.48a2.43,2.43,0,0,0-2.42-2.42H365.88a2.42,2.42,0,0,0,0,4.84H379.7A2.43,2.43,0,0,0,382.12,298.48Z" transform="translate(-175.7 -78)" style="fill:#fcd34d"/><path d="M474.87,296.06H461.05a2.42,2.42,0,0,0,0,4.84h13.82a2.42,2.42,0,0,0,0-4.84Z" transform="translate(-175.7 -78)" style="fill:#fcd34d"/><path d="M389.9,325.53l-9.77,9.77a2.42,2.42,0,0,0,3.43,3.42l9.76-9.77a2.42,2.42,0,1,0-3.42-3.42Z" transform="translate(-175.7 -78)" style="fill:#fcd34d"/><path d="M450.85,271.43l9.77-9.77a2.42,2.42,0,0,0-3.42-3.42L447.43,268a2.42,2.42,0,1,0,3.42,3.42Z" transform="translate(-175.7 -78)" style="fill:#fcd34d"/><text transform="translate(228.58 242.24)" style="font-size:61.14368438720703px;fill:#fcd34d;font-family:AvenirNext-Medium, Avenir Next;font-weight:500">$</text></svg>