<?xml version="1.0" standalone="no"?>
<!DOCTYPE svg PUBLIC "-//W3C//DTD SVG 20010904//EN"
 "http://www.w3.org/TR/2001/REC-SVG-20010904/DTD/svg10.dtd">
<svg version="1.0" xmlns="http://www.w3.org/2000/svg"
 width="982.000000pt" height="982.000000pt" viewBox="0 0 982.000000 982.000000"
 preserveAspectRatio="xMidYMid meet">
<metadata>
Created by potrace 1.11, written by Peter Selinger 2001-2013
</metadata>
<g transform="translate(0.000000,982.000000) scale(0.100000,-0.100000)"
fill="#000000" stroke="none">
<path d="M2908 9275 c-2 -2 -37 -6 -78 -8 -41 -3 -75 -6 -75 -7 0 -1 -11 -3
-25 -5 -217 -30 -429 -169 -559 -366 -63 -96 -150 -281 -165 -354 -1 -5 -9
-35 -18 -65 -16 -54 -38 -155 -44 -195 -1 -11 -3 -20 -4 -20 -1 0 -3 -20 -6
-44 -2 -25 -7 -56 -9 -70 -24 -124 -24 -650 -1 -791 3 -14 7 -54 10 -90 3 -36
8 -76 10 -90 2 -14 7 -47 11 -75 13 -98 16 -121 32 -205 19 -108 19 -105 44
-228 11 -57 19 -105 17 -106 -2 -1 -59 -21 -128 -43 -683 -225 -1214 -516
-1546 -847 -198 -198 -304 -370 -353 -576 -28 -116 -27 -230 4 -385 10 -51 64
-177 105 -246 155 -263 425 -504 820 -733 54 -32 350 -180 435 -218 102 -46
414 -164 540 -204 66 -20 123 -40 128 -44 6 -5 -9 -91 -39 -225 -2 -11 -6 -36
-9 -55 -3 -19 -7 -46 -10 -60 -7 -36 -26 -149 -31 -190 -2 -19 -6 -46 -9 -60
-2 -14 -7 -56 -11 -95 -3 -38 -8 -78 -10 -88 -8 -46 -18 -270 -18 -427 0 -191
9 -325 30 -465 4 -22 8 -49 9 -60 11 -73 43 -199 75 -295 75 -224 203 -420
345 -525 22 -17 42 -33 45 -37 9 -12 193 -96 220 -101 14 -3 48 -11 75 -18 78
-21 354 -18 460 5 66 14 192 49 251 70 125 43 199 71 204 76 10 10 70 41 70
36 0 -13 297 153 434 243 125 81 318 223 419 306 7 6 37 30 67 55 30 25 60 49
66 55 6 5 35 31 66 57 30 27 79 70 108 97 60 55 61 55 125 -6 41 -38 76 -69
175 -153 29 -25 61 -53 72 -63 10 -9 20 -17 23 -17 3 0 16 -10 29 -22 13 -13
33 -30 46 -38 12 -8 28 -19 34 -25 15 -13 98 -76 126 -95 12 -8 48 -34 81 -57
32 -24 63 -43 68 -43 5 0 11 -3 13 -7 5 -11 146 -103 158 -103 5 0 10 -4 10
-10 0 -5 6 -10 14 -10 8 0 21 -7 30 -15 8 -9 18 -16 20 -16 21 -2 46 -13 46
-19 0 -4 15 -13 33 -21 17 -7 34 -15 37 -18 6 -7 189 -96 198 -96 4 -1 17 -6
29 -13 37 -21 183 -72 183 -64 0 4 4 1 8 -5 5 -7 21 -14 38 -15 16 -1 31 -5
34 -9 6 -7 167 -46 230 -55 61 -9 114 -13 180 -14 46 -1 83 1 208 12 6 1 12 4
12 7 0 3 16 7 36 9 19 1 48 9 64 17 16 8 36 15 44 15 8 0 22 8 32 18 10 9 19
16 21 14 7 -6 53 11 53 19 0 5 5 9 10 9 6 0 16 4 23 10 7 5 36 28 65 50 29 23
50 45 47 51 -4 5 -3 9 2 8 19 -3 34 2 29 10 -3 5 0 11 7 14 23 9 122 148 161
227 21 41 46 92 56 113 12 23 15 37 8 37 -7 0 -3 7 8 15 10 8 16 15 12 15 -4
0 4 30 17 66 13 37 24 69 23 73 0 3 1 8 2 11 4 11 12 46 15 65 1 11 6 28 10
38 4 10 5 21 1 24 -3 3 -1 12 5 20 6 7 9 22 6 33 -3 11 -2 20 2 20 4 0 9 19
10 43 2 23 4 53 5 67 1 14 5 30 7 35 3 6 5 38 5 72 -1 35 1 63 4 63 3 0 5 45
5 100 0 55 4 100 8 100 5 0 5 6 1 12 -5 7 -8 49 -9 93 0 44 -5 86 -9 94 -5 8
-5 12 0 8 5 -3 9 6 9 19 0 13 -2 24 -5 24 -3 0 -6 30 -6 68 -1 72 -12 191 -20
232 -3 14 -6 39 -7 55 -1 17 -6 33 -12 37 -6 5 -5 8 3 8 8 0 10 5 5 12 -4 7
-8 18 -9 23 -1 6 -5 37 -9 70 -4 33 -12 63 -19 67 -8 6 -7 8 2 8 9 0 10 5 4
18 -5 9 -12 37 -15 62 -7 58 -17 111 -24 130 -3 8 -7 29 -8 45 -2 17 -8 49
-14 71 -11 43 -6 78 10 68 5 -3 15 -2 22 3 6 4 17 8 22 9 37 6 123 39 119 46
-3 4 1 5 9 2 7 -2 34 4 59 15 26 11 49 17 52 14 3 -4 6 -1 6 6 0 7 4 10 8 7 5
-3 40 7 78 23 82 34 107 44 114 46 3 1 23 9 45 19 22 10 60 26 85 36 25 10 59
25 75 34 17 9 38 16 47 16 9 0 19 4 22 8 3 5 66 39 140 76 75 37 140 74 145
84 8 14 10 14 11 2 0 -9 3 -11 8 -5 9 13 42 34 65 41 9 4 17 11 17 16 0 5 5 6
10 3 6 -3 10 -1 10 4 0 6 4 11 9 11 14 0 91 52 91 62 0 4 6 7 13 6 6 -2 11 3
9 10 -1 8 2 11 7 8 9 -6 77 34 91 52 3 4 24 20 48 36 23 16 42 33 42 37 0 5 5
9 10 9 19 0 260 230 260 247 0 4 11 17 25 27 14 10 25 23 25 27 0 5 8 18 17
28 35 38 42 49 36 55 -4 3 -1 6 5 6 7 0 12 6 12 14 0 7 7 19 15 26 8 7 12 16
9 21 -3 5 -1 9 3 9 7 0 46 63 49 79 0 3 8 22 16 41 20 44 49 140 42 140 -3 0
1 10 7 22 19 35 20 248 2 277 -10 15 -11 21 -2 16 9 -6 10 -2 5 16 -5 13 -8
32 -9 42 -1 9 -8 17 -17 17 -12 0 -12 2 -2 9 10 6 11 14 4 27 -17 32 -35 78
-39 97 -1 9 -14 35 -28 57 -14 22 -25 42 -25 46 0 3 -13 26 -30 51 -16 24 -30
49 -30 54 0 6 -4 8 -9 5 -5 -3 -11 4 -14 15 -4 13 -10 18 -18 13 -7 -4 -10 -3
-6 3 4 6 -7 24 -23 42 -17 17 -30 33 -30 37 0 10 -149 154 -160 154 -5 0 -10
7 -10 15 0 8 -4 15 -10 15 -5 0 -18 8 -28 18 -10 9 -30 26 -46 37 -15 11 -41
32 -58 47 -17 16 -33 26 -35 24 -2 -2 -18 10 -35 26 -17 16 -33 26 -36 23 -3
-3 -11 4 -19 15 -8 11 -21 20 -29 20 -8 0 -14 5 -14 10 0 6 -6 10 -14 10 -7 0
-19 7 -26 15 -7 8 -16 13 -20 10 -4 -3 -11 2 -14 11 -3 8 -10 12 -16 9 -5 -3
-10 -3 -10 2 0 8 -14 16 -117 74 -104 58 -146 79 -159 79 -8 0 -14 5 -14 10 0
6 -9 10 -20 10 -11 0 -20 5 -20 10 0 6 -5 10 -10 10 -6 0 -42 16 -80 34 -39
19 -70 32 -70 29 0 -3 -9 2 -20 12 -11 10 -20 15 -20 11 0 -3 -13 0 -30 9 -16
9 -30 12 -30 8 0 -5 -4 -3 -8 3 -8 13 -295 126 -352 139 -8 2 -28 8 -45 15
-16 6 -31 11 -33 11 -1 -1 -16 6 -32 14 -17 9 -30 13 -30 9 0 -4 -6 -2 -13 5
-10 8 -17 7 -27 -2 -9 -8 -11 -8 -6 0 4 7 -7 16 -29 23 -19 6 -33 15 -31 19 3
4 7 18 10 32 3 13 7 35 10 49 14 64 20 96 18 103 -1 4 3 7 9 7 8 0 8 4 0 13
-6 8 -7 17 -1 23 5 5 11 25 14 44 3 19 7 49 10 65 3 17 8 46 10 65 3 19 6 35
7 35 1 0 3 9 4 20 8 63 16 123 21 146 2 14 7 59 9 100 2 41 5 74 6 74 3 0 8
65 14 170 3 55 7 113 10 128 3 19 1 26 -6 21 -8 -4 -7 0 0 15 9 16 9 26 0 42
-6 12 -7 19 -2 16 5 -3 8 17 8 44 0 27 -4 49 -9 49 -5 0 -3 7 4 15 6 8 8 20 4
27 -11 18 -12 48 -2 48 5 0 6 5 2 11 -6 10 -16 132 -15 182 0 9 -3 16 -7 13
-4 -2 -8 19 -8 47 -2 47 -4 68 -20 147 -2 14 -6 34 -8 45 -2 11 -5 21 -6 23
-4 4 -7 21 -9 48 0 14 -5 22 -11 19 -5 -3 -7 0 -4 8 5 13 -31 138 -55 192 -5
11 -15 34 -22 52 -7 17 -16 30 -20 27 -4 -2 -6 2 -6 9 1 18 -26 77 -35 77 -4
0 -8 6 -8 13 0 37 -208 277 -239 277 -6 0 -11 5 -11 10 0 6 -7 10 -15 10 -8 0
-15 4 -15 9 0 5 -8 11 -17 14 -10 4 -38 18 -63 33 -25 14 -47 26 -50 26 -3 0
-15 4 -28 9 -13 5 -29 9 -37 9 -8 0 -16 4 -19 8 -2 4 -19 9 -37 10 -18 1 -39
8 -46 14 -10 8 -13 7 -13 -3 0 -11 -2 -11 -10 1 -8 12 -39 15 -185 14 -97 0
-180 -5 -183 -10 -4 -5 -16 -10 -27 -11 -85 -6 -167 -28 -323 -85 -46 -16 -90
-31 -98 -32 -9 -1 -19 -7 -22 -12 -4 -5 -13 -10 -20 -12 -24 -4 -107 -46 -114
-56 -4 -6 -8 -8 -8 -3 0 10 -163 -76 -299 -159 -35 -22 -72 -44 -83 -50 -10
-6 -30 -21 -43 -32 -13 -11 -26 -18 -29 -15 -3 4 -6 1 -6 -5 0 -7 -7 -12 -15
-12 -8 0 -15 -4 -15 -9 0 -5 -8 -12 -19 -16 -10 -3 -32 -17 -47 -31 -45 -38
-54 -45 -54 -39 0 2 -9 -3 -21 -13 -42 -35 -58 -47 -85 -67 -15 -11 -79 -62
-141 -113 -146 -120 -147 -120 -197 -167 -45 -41 -90 -81 -117 -102 -13 -11
-22 -6 -55 23 -98 90 -284 249 -344 294 -18 14 -57 44 -86 68 -29 23 -57 42
-62 42 -6 0 -12 4 -14 9 -2 7 -134 102 -189 136 -9 6 -41 26 -70 46 -30 19
-70 44 -89 55 -19 10 -37 21 -40 24 -31 31 -460 239 -460 223 0 -3 -6 -1 -13
5 -14 12 -229 79 -280 87 -17 3 -39 8 -48 11 -26 7 -77 14 -159 20 -41 3 -80
7 -87 9 -6 2 -13 2 -15 0z m4124 -449 c14 -1 24 -4 21 -8 -4 -7 12 -12 30 -9
4 0 7 -4 7 -10 0 -5 5 -7 10 -4 6 3 10 2 10 -4 0 -5 9 -8 20 -6 11 2 19 1 17
-3 -1 -4 2 -8 6 -9 4 -1 21 -16 36 -32 16 -17 31 -28 35 -26 3 3 4 2 1 -1 -2
-4 11 -26 30 -49 19 -23 35 -47 35 -54 0 -6 5 -11 10 -11 6 0 10 -9 10 -20 0
-11 4 -20 9 -20 5 0 12 -10 16 -22 4 -13 8 -26 10 -30 1 -5 3 -15 4 -24 0 -8
4 -13 9 -11 4 3 8 -9 9 -26 1 -17 8 -34 15 -39 7 -4 10 -8 6 -8 -4 0 -1 -20 6
-44 8 -25 11 -47 8 -50 -3 -4 -1 -6 4 -6 5 0 10 -10 11 -22 1 -13 4 -39 8 -58
3 -19 6 -47 7 -62 1 -16 4 -28 7 -28 3 0 7 -17 7 -38 3 -100 9 -142 18 -142 7
0 8 -3 1 -8 -14 -10 -17 -32 -5 -32 6 0 6 -9 1 -22 -4 -13 -5 -35 0 -50 4 -16
4 -28 -1 -28 -6 0 -6 -10 0 -25 6 -16 6 -26 -1 -31 -6 -3 -7 -13 -4 -23 10
-22 12 -130 3 -125 -4 3 -6 -5 -5 -16 1 -11 5 -20 10 -20 4 0 5 -6 0 -12 -4
-7 -8 -24 -9 -38 -2 -38 -14 -171 -18 -205 -14 -121 -18 -150 -22 -157 -3 -4
1 -8 8 -8 10 0 10 -2 1 -8 -7 -4 -14 -26 -16 -47 -1 -22 -7 -46 -11 -54 -6 -9
-5 -12 1 -8 5 3 10 0 10 -8 0 -8 -4 -12 -9 -9 -4 3 -9 -10 -10 -28 -1 -31 -3
-46 -8 -58 -5 -15 -23 -118 -24 -142 0 -10 -4 -18 -9 -18 -5 0 -7 -7 -3 -15 3
-8 1 -15 -5 -15 -6 0 -7 -5 -4 -10 3 -6 3 -20 0 -31 -6 -18 -12 -20 -43 -14
-48 9 -54 11 -72 18 -8 3 -28 8 -45 11 -16 3 -43 8 -60 12 -16 3 -39 7 -50 9
-11 1 -27 5 -37 9 -9 4 -29 9 -45 10 -15 2 -39 6 -53 10 -14 3 -41 8 -60 10
-19 3 -35 5 -35 6 0 2 -25 7 -125 24 -52 9 -106 18 -120 21 -14 3 -44 7 -66 9
-23 2 -46 6 -50 8 -5 3 -25 5 -45 5 -19 0 -40 2 -45 6 -5 3 -39 8 -74 12 -36
3 -73 8 -82 11 -10 3 -50 7 -90 9 -67 3 -74 6 -100 37 -35 42 -38 46 -68 90
-14 21 -28 38 -32 38 -5 0 -8 7 -8 15 0 8 -3 15 -7 15 -5 1 -26 26 -48 56 -22
31 -49 65 -60 77 -11 12 -33 40 -49 62 -33 44 -57 73 -98 116 -14 16 -23 29
-20 29 4 0 2 4 -3 8 -6 4 -35 36 -65 72 -100 117 -107 125 -235 266 -44 48
-90 96 -102 107 l-22 20 35 34 c19 18 37 33 40 33 2 0 22 18 44 40 22 22 42
40 44 40 2 0 24 18 48 40 67 61 78 70 78 65 0 -2 10 6 23 18 25 25 74 64 107
87 12 8 31 23 42 32 10 9 44 33 74 54 30 20 54 41 54 46 0 4 6 8 13 8 7 0 22
8 33 18 11 9 29 22 40 28 10 7 63 39 116 73 53 33 102 61 107 61 6 0 11 4 11
8 0 5 16 14 35 22 19 8 35 17 35 22 0 4 3 7 8 6 10 -2 105 45 114 57 4 6 8 7
8 3 0 -3 47 14 103 37 57 24 115 46 128 48 14 3 41 12 61 20 20 8 38 14 40 11
3 -2 20 1 39 7 19 5 61 12 94 15 33 3 61 7 63 8 1 2 35 1 75 -2 39 -3 84 -6
99 -6z m-4002 -11 c30 -3 63 -8 72 -11 16 -5 39 -10 86 -20 107 -22 450 -178
582 -263 151 -99 264 -174 273 -182 7 -5 44 -32 82 -60 39 -29 72 -56 73 -60
2 -5 8 -9 14 -9 9 0 126 -95 140 -115 4 -5 8 -7 8 -3 0 3 15 -8 34 -25 59 -57
169 -152 177 -155 19 -8 6 -30 -62 -102 -38 -41 -85 -91 -102 -110 -31 -33
-187 -215 -232 -269 -11 -13 -30 -35 -42 -49 -13 -14 -23 -28 -23 -31 0 -3
-15 -23 -33 -43 -52 -59 -77 -89 -77 -94 0 -2 -8 -12 -17 -22 -29 -30 -53 -62
-53 -68 0 -4 -12 -21 -27 -38 -16 -18 -37 -45 -48 -60 -11 -15 -35 -49 -54
-75 -19 -25 -35 -47 -36 -49 -4 -4 -51 -12 -103 -17 -26 -2 -65 -7 -87 -10
-41 -5 -107 -14 -160 -21 -94 -12 -119 -15 -124 -18 -3 -2 -31 -7 -62 -10 -31
-4 -67 -9 -80 -11 -46 -10 -64 -13 -104 -20 -36 -6 -208 -40 -260 -51 -11 -2
-33 -7 -50 -10 -16 -2 -48 -10 -70 -15 -22 -6 -47 -13 -55 -14 -8 -2 -37 -8
-64 -15 -45 -10 -60 -8 -61 8 -1 4 -8 41 -18 82 -9 41 -18 86 -21 100 -2 14
-7 36 -10 50 -3 14 -7 39 -10 55 -5 33 -24 155 -31 194 -2 14 -7 52 -11 85 -3
34 -8 75 -10 91 -18 155 -24 516 -10 660 14 152 30 242 59 340 11 39 22 77 23
85 6 30 55 132 88 183 78 120 168 180 297 194 75 9 98 9 199 -2z m3150 -31 c0
-8 -19 -13 -24 -6 -3 5 1 9 9 9 8 0 15 -2 15 -3z m1375 -404 c3 -6 -1 -7 -9
-4 -18 7 -21 14 -7 14 6 0 13 -4 16 -10z m289 -578 c3 -5 -1 -9 -9 -9 -8 0
-12 4 -9 9 3 4 7 8 9 8 2 0 6 -4 9 -8z m-2745 -429 c17 -18 31 -35 31 -38 0
-3 15 -20 33 -38 18 -17 44 -46 57 -63 14 -17 49 -60 79 -95 29 -35 65 -79 80
-97 14 -18 36 -45 48 -60 23 -27 32 -58 13 -47 -25 15 -710 23 -963 11 -93 -5
-117 -3 -111 6 11 19 121 157 168 211 10 12 35 42 55 67 20 25 47 57 61 71 14
15 40 44 58 65 19 22 70 78 114 126 l81 87 83 -87 c45 -48 96 -101 113 -119z
m2456 -273 c-3 -5 -12 -10 -18 -10 -7 0 -6 4 3 10 19 12 23 12 15 0z m-1025
-436 c0 -8 -19 -13 -24 -6 -3 5 1 9 9 9 8 0 15 -2 15 -3z m-1877 -166 c-2 -5
6 -4 19 0 17 6 314 7 466 2 6 0 33 0 60 0 83 1 475 -19 480 -25 3 -2 14 0 25
6 14 8 18 8 12 -1 -4 -7 -1 -11 6 -9 8 1 31 1 51 0 34 -1 41 -6 85 -72 26 -39
54 -77 61 -84 6 -8 12 -18 12 -24 0 -6 5 -11 10 -11 6 0 10 -5 10 -10 0 -12
41 -73 53 -78 4 -2 7 -8 7 -14 0 -5 10 -24 23 -41 30 -42 45 -69 53 -89 3 -10
10 -18 15 -18 5 0 9 -7 9 -16 0 -9 5 -12 13 -8 6 4 9 4 5 -1 -8 -9 22 -65 34
-65 4 0 8 -9 8 -20 0 -11 5 -20 10 -20 6 0 10 -7 10 -15 0 -8 4 -15 8 -15 4 0
13 -12 20 -27 7 -16 18 -37 25 -48 12 -20 66 -112 124 -214 18 -31 40 -71 49
-88 9 -18 20 -30 25 -27 5 3 6 -1 3 -9 -3 -8 0 -18 5 -22 6 -3 9 -11 6 -16 -4
-5 -2 -9 2 -9 5 0 17 -20 28 -45 11 -25 24 -45 28 -45 5 0 5 -4 2 -10 -3 -5
-1 -10 5 -10 6 0 9 -4 5 -9 -3 -6 3 -14 12 -20 10 -6 15 -11 10 -11 -9 0 62
-144 74 -148 5 -2 7 -7 4 -12 -3 -5 2 -16 11 -24 8 -9 13 -16 10 -16 -3 0 11
-34 31 -76 30 -63 34 -80 25 -95 -7 -10 -12 -25 -12 -33 0 -8 -3 -16 -7 -18
-10 -4 -75 -140 -73 -152 1 -5 -2 -12 -7 -15 -15 -10 -72 -128 -66 -135 4 -3
2 -6 -3 -6 -6 0 -26 -30 -44 -67 -19 -38 -40 -75 -48 -84 -7 -9 -14 -26 -15
-37 0 -11 -4 -19 -8 -17 -3 3 -15 -15 -25 -38 -10 -23 -22 -44 -26 -47 -4 -3
-12 -17 -18 -30 -6 -14 -16 -34 -23 -45 -22 -35 -47 -85 -48 -92 0 -5 -10 -18
-21 -30 -12 -13 -18 -23 -14 -23 4 0 0 -7 -8 -16 -9 -8 -16 -21 -16 -29 0 -7
-3 -15 -7 -17 -10 -4 -53 -65 -53 -75 0 -4 -10 -23 -23 -42 -64 -97 -81 -127
-79 -133 1 -5 -2 -8 -8 -8 -5 0 -10 -7 -10 -15 0 -8 -5 -15 -11 -15 -5 0 -8
-4 -5 -9 3 -5 -1 -11 -9 -15 -8 -3 -15 -12 -15 -21 0 -8 -3 -15 -8 -15 -4 0
-18 -20 -32 -45 -14 -25 -28 -45 -33 -45 -4 0 -6 -4 -3 -9 4 -5 3 -11 -1 -13
-5 -1 -21 -23 -38 -48 -16 -25 -36 -51 -42 -58 -7 -7 -13 -20 -13 -28 0 -8 -9
-15 -20 -15 -28 -2 -33 -3 -47 -12 -8 -5 -13 -4 -13 3 0 6 -4 9 -9 5 -5 -3
-43 -7 -83 -10 -40 -2 -113 -7 -163 -10 -128 -9 -314 -13 -580 -14 -198 0
-460 5 -460 8 0 1 -47 4 -105 6 -58 2 -141 7 -185 11 -44 4 -96 8 -115 9 -19
2 -38 3 -41 4 -3 1 -14 17 -25 36 -10 19 -22 35 -26 35 -5 0 -8 5 -8 10 0 10
-37 68 -51 80 -8 7 -125 191 -236 370 -177 285 -324 551 -473 857 l-80 163 27
62 c15 35 31 66 36 69 5 3 8 9 8 13 -3 15 190 388 306 589 40 71 73 133 73
138 0 5 5 9 10 9 6 0 10 5 10 10 0 6 36 69 80 141 44 71 80 132 80 135 0 3 5
10 11 17 5 7 39 57 74 112 35 55 68 105 72 110 4 6 30 43 57 83 26 39 51 72
55 73 3 0 15 2 26 4 47 10 343 28 472 29 51 1 93 3 93 6 0 3 13 5 29 5 16 0
27 -3 24 -7z m1827 -111 c25 -3 65 -9 90 -12 25 -4 54 -8 65 -9 12 -1 26 -6
33 -10 7 -4 19 -5 27 -2 8 3 16 2 19 -2 2 -4 17 -9 33 -10 29 -3 66 -9 71 -12
4 -4 16 -6 77 -15 68 -10 65 -9 85 -18 8 -4 31 -8 50 -9 19 -2 37 -5 40 -8 3
-3 34 -12 70 -19 66 -13 86 -27 70 -47 -6 -6 -7 -14 -3 -17 3 -4 2 -7 -4 -7
-10 0 -28 -68 -26 -97 0 -7 -4 -13 -9 -13 -6 0 -8 -7 -4 -15 3 -8 2 -15 -3
-15 -7 0 -23 -46 -25 -75 -1 -5 -4 -12 -8 -15 -4 -3 -10 -17 -12 -30 -2 -14
-5 -27 -6 -30 -2 -3 -2 -8 -1 -12 0 -5 -4 -8 -11 -8 -6 0 -9 -3 -6 -6 3 -3
-10 -49 -29 -102 -20 -53 -36 -103 -36 -109 0 -7 -4 -13 -9 -13 -4 0 -8 -6 -8
-14 0 -8 -4 -25 -9 -38 -5 -13 -8 -26 -7 -29 0 -3 -4 -12 -10 -20 -6 -8 -17
-31 -24 -52 -6 -20 -15 -35 -20 -32 -4 3 -18 26 -30 52 -12 27 -27 51 -32 54
-5 3 -10 13 -12 21 -1 8 -9 26 -17 39 -8 13 -21 39 -28 57 -8 17 -17 32 -22
32 -5 0 -9 7 -9 15 0 8 -5 15 -11 15 -5 0 -8 4 -5 8 3 5 -6 25 -20 45 -13 20
-24 39 -24 42 0 3 -6 15 -14 28 -7 12 -44 74 -82 137 -37 63 -71 117 -76 118
-4 2 -8 10 -8 18 0 8 -5 14 -11 14 -5 0 -8 4 -5 9 3 4 -5 21 -19 37 -13 15
-22 31 -19 36 3 4 -2 11 -10 14 -9 3 -16 11 -16 18 0 10 -46 85 -70 113 -7 8
-4 13 8 15 9 2 19 1 22 -3 3 -4 25 -10 50 -12z m-3070 7 c0 -7 -44 -82 -90
-154 -16 -25 -82 -137 -148 -250 -112 -193 -167 -292 -252 -453 -20 -38 -40
-69 -45 -68 -4 0 -19 28 -32 63 -14 35 -35 89 -49 121 -13 32 -24 65 -24 73 0
8 -4 22 -10 32 -29 53 -161 474 -152 484 4 4 25 10 46 14 22 3 50 10 63 15 13
5 23 7 23 4 0 -2 15 1 33 6 17 5 48 12 67 15 19 3 62 12 96 20 34 7 76 16 95
19 44 6 88 14 119 21 14 3 39 8 55 10 17 2 41 6 55 9 14 3 45 8 69 11 25 2 47
7 50 9 7 7 31 6 31 -1z m4145 -94 c3 -6 -1 -7 -9 -4 -18 7 -21 14 -7 14 6 0
13 -4 16 -10z m125 -184 c0 3 6 2 13 -3 6 -6 20 -9 30 -8 9 2 15 0 12 -5 -3
-4 8 -10 23 -13 62 -13 87 -20 92 -28 3 -5 17 -11 30 -13 14 -2 25 -5 25 -6 0
-1 11 -4 25 -6 13 -2 28 -10 32 -17 4 -6 8 -8 8 -3 0 5 7 3 15 -4 8 -7 15 -10
15 -6 0 4 13 0 29 -8 16 -9 31 -12 35 -9 3 4 6 1 6 -5 0 -7 3 -11 8 -10 4 1
29 -8 56 -20 27 -12 54 -22 60 -22 6 0 20 -6 31 -14 11 -7 23 -14 28 -15 4 0
21 -8 37 -16 16 -8 32 -15 35 -15 22 1 25 -1 20 -10 -4 -6 -3 -10 2 -9 4 1 11
0 16 -1 4 -1 10 -3 15 -4 4 -1 17 -7 28 -14 12 -6 24 -8 28 -5 3 3 6 1 6 -5 0
-6 9 -13 20 -17 27 -9 204 -107 211 -118 3 -5 10 -8 15 -8 5 1 16 -4 25 -11 8
-7 36 -24 62 -38 26 -13 47 -28 47 -32 0 -5 7 -8 15 -8 8 0 15 -3 15 -7 0 -5
27 -25 60 -47 33 -21 60 -42 60 -46 0 -5 8 -11 18 -14 10 -3 41 -28 70 -56 29
-27 55 -50 57 -50 3 0 21 -16 39 -35 19 -19 32 -35 30 -35 -3 0 5 -11 18 -24
41 -41 68 -76 68 -86 0 -6 5 -10 10 -10 6 0 10 -6 10 -13 0 -7 8 -22 18 -33 9
-11 18 -26 20 -34 2 -8 7 -17 10 -20 4 -3 7 -11 8 -17 2 -29 4 -34 12 -30 13
9 21 -155 10 -203 -16 -66 -101 -230 -120 -230 -6 0 -8 -7 -4 -15 3 -8 0 -14
-7 -12 -7 1 -11 -6 -11 -15 1 -10 -4 -14 -12 -11 -8 3 -14 1 -14 -4 0 -6 -20
-29 -44 -54 -32 -31 -42 -46 -33 -52 8 -6 7 -7 -4 -4 -18 6 -96 -58 -91 -75 1
-5 -2 -7 -8 -3 -5 3 -21 -5 -35 -19 -14 -15 -30 -26 -35 -26 -6 0 -10 -4 -10
-10 0 -5 -7 -10 -15 -10 -8 0 -15 -4 -15 -9 0 -5 -16 -16 -35 -25 -19 -9 -35
-21 -35 -26 0 -6 -3 -9 -7 -8 -7 2 -89 -48 -103 -62 -3 -3 -18 -12 -35 -20
-16 -8 -32 -18 -35 -21 -3 -3 -18 -12 -35 -21 -16 -8 -91 -45 -165 -83 -74
-37 -138 -73 -142 -79 -5 -7 -8 -7 -8 2 0 9 -11 6 -32 -10 -18 -13 -35 -22
-38 -21 -3 1 -18 -4 -35 -12 -48 -21 -69 -28 -77 -27 -5 1 -8 -3 -8 -9 0 -5
-4 -7 -10 -4 -5 3 -10 1 -10 -4 0 -6 -3 -10 -7 -9 -10 3 -114 -32 -128 -42
-12 -9 -67 -24 -77 -22 -5 1 -8 -3 -8 -10 0 -6 -3 -9 -6 -6 -3 3 -29 -3 -57
-14 -56 -21 -62 -23 -122 -37 -34 -8 -41 -7 -49 7 -6 9 -9 19 -9 22 0 3 -4 16
-9 30 -5 14 -11 32 -13 41 -3 14 -36 121 -53 169 -3 8 -6 21 -8 28 -1 8 -6 21
-10 30 -4 9 -8 20 -9 25 -2 4 -4 9 -5 12 -3 6 -5 12 -15 42 -4 13 -12 20 -19
16 -7 -4 -6 -1 1 7 7 8 9 18 5 24 -5 6 -15 31 -22 56 -7 25 -17 50 -21 55 -7
10 -9 16 -9 36 0 5 -5 7 -12 3 -6 -4 -8 -3 -4 4 3 6 -2 33 -13 61 -10 27 -16
52 -13 55 3 4 0 6 -6 6 -7 0 -12 9 -12 19 0 11 -4 23 -10 26 -5 3 -10 15 -10
26 0 10 -5 19 -12 19 -6 0 -9 3 -5 6 3 4 0 19 -9 35 -8 16 -12 29 -9 29 4 0 0
12 -8 28 -21 38 -50 104 -89 199 -18 44 -36 79 -40 77 -4 -2 -1 8 7 23 37 77
65 141 65 147 0 3 9 28 21 54 12 26 25 56 30 67 12 27 32 79 33 85 1 3 5 11
10 18 4 7 6 16 2 19 -3 3 2 12 10 20 8 9 13 21 10 29 -3 7 -1 14 5 16 5 2 11
12 13 23 2 11 10 34 17 50 7 17 13 32 14 35 1 3 4 12 8 20 29 76 38 110 32
121 -5 7 -4 10 2 6 6 -4 14 1 18 11 6 15 9 29 18 76 1 6 5 13 8 16 5 5 56 155
64 190 2 8 10 34 18 57 9 22 13 44 10 47 -3 3 -1 11 4 18 6 7 14 28 18 45 6
29 9 32 26 23 10 -6 19 -8 19 -4z m-5470 -138 c24 -79 63 -199 88 -268 24 -69
47 -136 50 -150 2 -14 8 -29 12 -35 4 -5 22 -50 40 -100 34 -93 144 -361 186
-453 13 -29 24 -59 24 -66 0 -13 -20 -64 -55 -141 -45 -99 -201 -495 -210
-535 -2 -8 -15 -43 -29 -78 -13 -34 -25 -65 -25 -67 0 -3 -21 -71 -47 -152
-25 -81 -47 -152 -49 -158 -1 -5 -5 -19 -9 -30 -5 -11 -10 -26 -12 -34 -3 -9
-12 -11 -27 -7 -12 4 -29 8 -38 10 -15 4 -192 66 -299 104 -253 92 -578 254
-785 389 -413 271 -614 539 -573 765 48 263 415 593 943 849 61 29 112 54 115
55 3 0 23 9 45 18 22 10 56 25 75 33 19 8 51 22 70 30 19 8 121 46 225 83 105
37 197 70 205 73 8 3 20 6 25 6 6 1 31 -63 55 -141z m6281 105 c13 -16 12 -17
-3 -4 -10 7 -18 15 -18 17 0 8 8 3 21 -13z m320 -180 c13 -16 12 -17 -3 -4
-17 13 -22 21 -14 21 2 0 10 -8 17 -17z m-1886 -562 c3 -5 2 -12 -3 -15 -5 -3
-9 1 -9 9 0 17 3 19 12 6z m2375 -77 c0 -8 -19 -13 -24 -6 -3 5 1 9 9 9 8 0
15 -2 15 -3z m151 -641 c13 -16 12 -17 -3 -4 -10 7 -18 15 -18 17 0 8 8 3 21
-13z m-2492 -286 c11 -23 23 -55 26 -70 4 -15 11 -30 16 -33 5 -3 9 -14 9 -25
0 -10 4 -27 9 -37 16 -31 82 -208 87 -232 0 -3 3 -12 7 -20 11 -29 67 -204 67
-211 0 -4 5 -20 12 -36 6 -15 13 -37 15 -47 2 -11 8 -25 14 -32 5 -7 6 -14 2
-17 -7 -4 -77 -18 -93 -19 -3 0 -16 -5 -30 -10 -14 -5 -41 -12 -60 -14 -19 -3
-43 -7 -52 -10 -10 -3 -30 -7 -45 -10 -16 -3 -37 -8 -48 -11 -11 -3 -29 -7
-40 -9 -11 -2 -33 -6 -50 -10 -16 -3 -44 -7 -60 -8 -17 -1 -35 -5 -42 -9 -6
-4 -31 -9 -55 -12 -23 -2 -52 -6 -63 -9 -20 -4 -68 -11 -140 -22 -22 -3 -43
-8 -47 -11 -4 -2 -5 3 -2 11 3 9 11 16 16 16 5 0 8 5 6 11 -2 6 9 25 24 42 16
16 26 32 24 34 -3 3 4 14 15 26 10 11 19 27 19 34 0 7 5 13 11 13 5 0 7 5 4
10 -3 6 -3 10 2 10 7 0 15 12 64 98 11 18 16 38 13 44 -4 6 -2 8 4 4 6 -3 23
16 39 46 16 29 43 76 60 105 17 28 29 54 26 57 -4 3 -2 6 4 6 10 0 38 49 35
63 -1 4 3 7 8 7 6 0 10 4 10 9 0 5 15 36 34 69 19 33 32 63 28 66 -3 3 0 6 7
6 7 0 9 5 6 10 -3 6 -3 10 2 10 4 0 19 24 33 53 14 28 29 55 33 58 4 3 9 16
10 27 1 12 2 22 4 22 1 0 11 -19 22 -43z m-4023 -92 c31 -60 66 -123 75 -140
10 -16 27 -46 37 -65 38 -73 159 -277 295 -494 7 -11 27 -44 45 -74 l33 -53
-43 6 c-63 9 -100 15 -128 20 -63 12 -97 18 -115 20 -11 2 -22 4 -25 5 -6 3
-10 3 -80 14 -30 5 -59 11 -64 14 -6 3 -19 6 -30 7 -59 3 -326 69 -326 80 0
18 136 440 163 505 6 14 11 27 11 30 3 14 89 240 92 238 1 -2 28 -52 60 -113z
m6204 81 c0 -2 -8 -10 -17 -17 -16 -13 -17 -12 -4 4 13 16 21 21 21 13z m-259
-119 c-10 -9 -11 -8 -5 6 3 10 9 15 12 12 3 -3 0 -11 -7 -18z m403 -65 c3 -5
-1 -9 -9 -9 -8 0 -12 4 -9 9 3 4 7 8 9 8 2 0 6 -4 9 -8z m-423 -249 c13 -16
12 -17 -3 -4 -10 7 -18 15 -18 17 0 8 8 3 21 -13z m-375 -28 c-1 -8 -5 -17 -8
-21 -5 -4 -4 16 1 34 3 9 9 -1 7 -13z m489 -25 c3 -6 -1 -7 -9 -4 -18 7 -21
14 -7 14 6 0 13 -4 16 -10z m-1288 -455 c0 -8 -4 -12 -9 -9 -5 3 -6 10 -3 15
9 13 12 11 12 -6z m-352 -263 c2 -11 8 -29 14 -40 6 -11 8 -22 4 -25 -3 -3 -2
-14 2 -24 11 -23 10 -20 19 -83 4 -30 10 -64 13 -75 2 -11 5 -26 5 -32 1 -7 4
-13 7 -13 3 0 6 -15 5 -32 0 -18 2 -37 5 -42 2 -6 5 -19 6 -30 2 -27 16 -135
20 -155 2 -9 4 -20 4 -24 1 -5 7 -5 14 -1 9 6 9 5 0 -7 -7 -8 -10 -26 -8 -40
3 -14 7 -55 9 -92 3 -36 7 -71 11 -77 3 -5 1 -10 -5 -10 -6 0 -8 -5 -3 -12 4
-7 8 -44 10 -83 3 -92 3 -83 1 -138 -2 -27 0 -51 5 -54 4 -2 4 -9 1 -15 -4 -6
-8 -54 -10 -107 -3 -90 -5 -120 -20 -228 -3 -24 -5 -45 -6 -48 0 -2 -8 -42
-18 -87 -10 -45 -17 -85 -14 -89 2 -4 0 -9 -6 -11 -5 -1 -11 -19 -12 -38 -2
-19 -9 -39 -15 -45 -7 -5 -14 -19 -16 -30 -5 -24 -18 -58 -26 -65 -3 -3 -17
-27 -31 -55 -27 -53 -141 -175 -164 -175 -8 0 -22 -7 -30 -16 -9 -8 -16 -13
-16 -11 0 3 -26 -1 -57 -7 -32 -6 -69 -11 -83 -11 -14 0 -28 -4 -32 -10 -5 -6
-8 -6 -8 0 0 6 -19 10 -43 10 -23 -1 -48 3 -54 8 -9 6 -13 5 -13 -2 0 -9 -5
-9 -21 0 -12 6 -32 9 -45 6 -14 -2 -21 0 -17 6 4 6 0 8 -10 4 -9 -3 -19 -2
-22 3 -4 6 -15 10 -26 10 -10 0 -47 9 -81 21 -78 25 -86 28 -96 30 -7 1 -19 7
-91 44 -16 8 -36 15 -45 15 -9 0 -16 5 -16 12 0 6 -3 9 -6 5 -9 -9 -228 109
-326 175 -31 21 -60 38 -63 38 -3 0 -15 9 -27 20 -12 11 -28 20 -35 20 -7 0
-13 5 -13 10 0 6 -7 10 -15 10 -8 0 -15 4 -15 8 0 4 -12 15 -27 24 -16 9 -37
24 -48 32 -11 9 -45 35 -76 58 -100 76 -121 93 -139 108 -10 8 -37 31 -60 49
-24 19 -48 41 -56 48 -7 7 -18 13 -24 13 -6 0 -8 5 -5 10 3 6 3 10 -2 10 -9 0
-44 29 -115 95 l-47 43 60 61 c32 34 59 63 59 65 0 2 26 31 58 65 62 66 112
122 112 126 0 2 13 17 29 34 17 18 45 50 63 73 18 22 38 45 43 52 48 53 95
116 95 125 0 6 8 11 17 11 9 0 14 3 10 6 -3 4 9 23 28 43 19 20 35 41 35 48 0
6 4 13 9 15 16 6 111 139 106 149 -3 5 2 6 11 2 12 -4 15 -3 10 5 -4 7 -4 12
1 12 4 1 24 23 43 50 39 56 42 58 125 65 33 3 71 7 85 10 14 3 50 7 80 10 30
2 55 5 55 5 0 2 29 7 80 14 79 10 118 16 145 23 14 3 40 7 58 8 18 2 45 6 60
10 15 4 41 9 57 11 94 15 148 25 165 31 8 3 33 8 55 10 21 2 42 8 46 15 4 6
11 8 16 5 5 -3 27 -1 49 4 21 6 45 11 52 11 6 1 12 5 12 9 0 5 6 6 13 4 6 -3
44 3 82 13 39 10 71 18 73 17 1 -1 4 -12 7 -23z m-4670 -22 c77 -18 154 -34
170 -37 17 -2 62 -11 100 -20 39 -8 84 -16 100 -18 17 -2 41 -6 55 -9 89 -18
264 -44 405 -62 17 -2 46 -6 65 -9 19 -2 60 -7 90 -10 82 -8 110 -12 114 -16
2 -2 39 -51 81 -109 43 -58 82 -106 87 -108 4 -2 8 -10 8 -17 0 -7 4 -15 8
-17 4 -1 23 -23 42 -48 19 -24 40 -50 45 -56 6 -7 24 -29 40 -49 17 -21 35
-43 40 -49 6 -6 44 -51 85 -101 41 -49 87 -103 102 -120 14 -16 36 -41 48 -55
22 -26 150 -166 208 -228 17 -19 32 -38 32 -41 0 -3 -21 -24 -47 -46 -26 -22
-54 -47 -63 -55 -20 -19 -152 -132 -165 -143 -5 -4 -21 -17 -35 -28 -14 -12
-50 -40 -80 -62 -30 -23 -69 -53 -86 -67 -17 -14 -41 -32 -54 -40 -12 -8 -28
-20 -34 -25 -43 -39 -434 -275 -456 -275 -5 0 -10 -4 -10 -10 0 -5 -6 -10 -14
-10 -8 0 -36 -11 -63 -24 -71 -34 -177 -77 -207 -83 -11 -2 -25 -8 -31 -13 -7
-5 -15 -7 -18 -3 -4 3 -12 1 -19 -5 -7 -6 -16 -10 -21 -10 -4 0 -20 -3 -35 -6
-348 -76 -530 -6 -652 249 -62 132 -104 301 -126 510 -15 138 -7 630 11 724 2
9 6 45 10 81 4 36 9 74 11 85 2 10 6 37 9 60 13 87 20 129 44 250 11 55 22
109 24 120 4 29 16 45 30 40 7 -2 75 -18 152 -35z m4858 -95 c-3 -9 -8 -14
-10 -11 -3 3 -2 9 2 15 9 16 15 13 8 -4z m-2070 -129 c14 2 10 -7 -15 -35 -18
-21 -46 -55 -63 -76 -42 -52 -63 -78 -77 -95 -7 -8 -12 -16 -11 -17 2 -1 -12
-17 -30 -35 -18 -18 -57 -62 -87 -98 -30 -36 -74 -85 -97 -110 -23 -25 -53
-58 -68 -75 -14 -16 -40 -45 -58 -63 l-32 -33 -85 90 c-90 95 -182 197 -215
239 -11 13 -31 37 -45 52 -14 15 -39 45 -57 66 -17 22 -40 49 -50 61 -11 12
-28 34 -39 48 -10 15 -27 36 -36 47 -10 12 -18 24 -18 29 0 4 57 5 128 2 289
-13 909 -6 919 10 3 5 8 5 12 -1 3 -5 14 -8 24 -6z m1998 -93 c13 -16 12 -17
-3 -4 -17 13 -22 21 -14 21 2 0 10 -8 17 -17z m119 -3 c0 -5 -4 -10 -10 -10
-5 0 -10 5 -10 10 0 6 5 10 10 10 6 0 10 -4 10 -10z m-45 -479 c3 -5 2 -12 -3
-15 -5 -3 -9 1 -9 9 0 17 3 19 12 6z m110 -1 c3 -6 -1 -7 -9 -4 -18 7 -21 14
-7 14 6 0 13 -4 16 -10z m265 -274 c0 -2 -8 -10 -17 -17 -16 -13 -17 -12 -4 4
13 16 21 21 21 13z m-10 -122 c0 -8 -19 -13 -24 -6 -3 5 1 9 9 9 8 0 15 -2 15
-3z m-363 -349 c0 -8 -4 -12 -9 -9 -4 3 -8 9 -8 15 0 5 4 9 8 9 5 0 9 -7 9
-15z"/>
<path d="M4866 5994 c-9 -8 -16 -25 -17 -37 0 -12 0 -83 -1 -157 0 -127 1
-135 22 -152 28 -23 36 -22 58 0 17 17 19 37 20 171 0 138 -1 154 -19 172 -23
23 -42 24 -63 3z"/>
<path d="M4087 5669 c-8 -11 -13 -28 -10 -38 5 -21 211 -226 234 -234 9 -3 26
1 38 10 41 28 24 59 -94 175 -115 113 -141 126 -168 87z"/>
<path d="M5534 5576 c-63 -62 -114 -121 -114 -130 0 -27 36 -55 61 -49 23 6
228 205 230 224 1 5 2 15 3 22 3 19 -25 47 -47 47 -11 0 -66 -47 -133 -114z"/>
<path d="M4929 5341 c-1 -14 -2 -46 -3 -71 -1 -44 -1 -45 -41 -51 -134 -21
-202 -91 -206 -210 -3 -60 13 -102 51 -138 29 -28 110 -65 161 -75 l37 -6 -2
-133 -1 -132 -53 3 c-33 1 -78 14 -119 32 -42 19 -69 27 -73 20 -5 -8 -6 -64
-1 -91 2 -14 162 -52 242 -58 4 -1 7 -36 7 -78 0 -43 0 -83 1 -90 1 -6 15 -11
31 -11 l30 1 0 88 0 89 28 5 c138 28 203 76 226 166 15 58 9 116 -16 163 -24
46 -81 81 -173 106 l-60 17 0 124 0 124 39 -3 c21 -2 63 -12 94 -23 30 -10 59
-19 64 -19 4 0 8 22 8 50 l0 49 -42 12 c-24 6 -59 14 -78 16 -19 3 -44 6 -55
8 -11 2 -23 4 -27 4 -4 1 -8 31 -10 68 -3 65 -4 67 -30 68 -24 2 -28 -2 -29
-24z m-3 -327 c1 -128 1 -128 -72 -95 -98 45 -79 179 31 210 17 4 32 6 35 4 3
-3 5 -56 6 -119z m138 -258 c108 -45 97 -180 -18 -219 -24 -8 -47 -13 -50 -9
-3 3 -6 59 -6 124 0 132 2 134 74 104z"/>
<path d="M3778 4909 c-26 -15 -23 -65 3 -80 28 -15 300 -14 328 1 28 14 29 65
2 80 -25 13 -310 13 -333 -1z"/>
<path d="M5677 4902 c-22 -24 -21 -45 2 -66 16 -15 41 -18 171 -18 142 0 154
2 174 21 19 20 20 23 6 49 l-16 27 -160 3 c-146 2 -162 1 -177 -16z"/>
<path d="M4314 4342 c-12 -1 -69 -52 -128 -111 -78 -80 -106 -115 -106 -133 0
-33 23 -52 55 -44 35 9 235 214 235 241 0 28 -29 52 -56 47z"/>
<path d="M5437 4319 c-8 -11 -13 -29 -10 -39 7 -28 217 -230 239 -230 42 0 63
40 39 76 -9 13 -59 67 -112 119 -101 100 -129 113 -156 74z"/>
<path d="M4869 4091 c-19 -15 -21 -27 -21 -176 0 -141 2 -161 18 -172 27 -19
52 -16 68 10 16 25 21 300 5 328 -13 25 -46 29 -70 10z"/>
</g>
</svg>
